<svg width="16" height="17" viewBox="0 0 16 17" fill="none" xmlns="http://www.w3.org/2000/svg">
<path fill-rule="evenodd" clip-rule="evenodd" d="M8.00007 8.53639e-10C9.62453 -2.67929e-05 11.1855 0.630694 12.3537 1.75912C13.5219 2.88754 14.206 4.42545 14.2617 6.04842L14.2653 6.26316V9.39481C14.2653 9.5501 14.3014 9.70325 14.3709 9.84214L15.896 12.8914C15.9672 13.0336 16.0028 13.191 15.9998 13.35C15.9968 13.5091 15.9553 13.665 15.8789 13.8045C15.8024 13.944 15.6933 14.0629 15.5608 14.151C15.4283 14.2391 15.2765 14.2938 15.1182 14.3104L15.0153 14.3158H0.984824C0.825656 14.3158 0.668849 14.2773 0.52784 14.2035C0.386832 14.1297 0.265827 14.0228 0.175195 13.892C0.0845627 13.7612 0.0270053 13.6104 0.00745503 13.4525C-0.0120952 13.2946 0.00694469 13.1343 0.0629431 12.9853L0.104114 12.8914L1.62923 9.84214C1.69869 9.70325 1.73486 9.5501 1.73486 9.39481V6.26316C1.73486 4.60207 2.39494 3.00901 3.5699 1.83444C4.74485 0.659866 6.33843 8.5364e-10 8.00007 8.53639e-10ZM8.00007 1.78947C6.84686 1.78954 5.73818 2.23464 4.90526 3.03196C4.07233 3.82928 3.57944 4.91725 3.52939 6.069L3.52492 6.26316V9.63095C3.52493 9.85285 3.48365 10.0728 3.40319 10.2796L3.33607 10.4317L3.0124 11.0791C2.67998 11.744 3.16348 12.5263 3.90684 12.5263H12.0945C12.8378 12.5263 13.3213 11.7442 12.989 11.0793L12.665 10.4308C12.5656 10.2325 12.504 10.0174 12.4833 9.79647L12.4752 9.63095V6.26316C12.4752 5.07666 12.0037 3.93876 11.1645 3.09979C10.3252 2.26081 9.18695 1.78947 8.00007 1.78947Z" fill="#74A2B2"/>
<path d="M9.68548 15.2105C10.2376 15.2105 10.7059 15.6908 10.4133 16.1591C10.3538 16.2543 10.2851 16.3444 10.2077 16.4279C9.90059 16.7589 9.47969 16.9617 9.02935 16.9955L8.8951 17H7.10504C6.65343 17.0001 6.21845 16.8296 5.88731 16.5227C5.77878 16.4221 5.67991 16.2972 5.59602 16.1581C5.31073 15.6853 5.76269 15.2105 6.31498 15.2105H9.68548Z" fill="#74A2B2"/>
</svg>
